<svg width="172" height="170" viewBox="0 0 172 170" fill="none" xmlns="http://www.w3.org/2000/svg">
<path d="M85.8648 4.74542C130.638 4.74542 166.936 40.6778 166.936 85C166.936 129.322 130.638 165.255 85.8648 165.255C41.0916 165.255 4.7937 129.322 4.7937 85C4.7937 40.6778 41.0916 4.74542 85.8648 4.74542ZM85.8648 0C38.5222 0 0 38.1342 0 85C0 131.866 38.5222 170 85.8648 170C133.207 170 171.73 131.866 171.73 85C171.73 38.1342 133.207 0 85.8648 0Z" fill="#E01115"/>
<g clip-path="url(#clip0_1_1700)">
<path d="M46.7972 85.0415C46.2569 85.0415 45.7978 84.6288 45.7474 84.0823C45.697 83.5051 46.1254 82.9948 46.7048 82.9446L55.0638 82.2168C55.646 82.1638 56.1555 82.5933 56.2059 83.1705C56.2563 83.7477 55.828 84.258 55.2485 84.3082L46.8896 85.036C46.8588 85.0387 46.828 85.0387 46.7972 85.0387V85.0415Z" fill="#E01115"/>
<path d="M64.1141 83.6639C63.5067 83.6639 62.9888 83.201 62.9356 82.5848C62.8796 81.9351 63.3611 81.3634 64.0133 81.3049L72.3723 80.5771C73.0245 80.5185 73.5984 81.0009 73.6572 81.6506C73.7132 82.3003 73.2317 82.872 72.5794 82.9305L64.2205 83.6583C64.1841 83.6611 64.1505 83.6639 64.1169 83.6639H64.1141Z" fill="#E01115"/>
<path d="M81.4283 82.2864C80.7536 82.2864 80.1769 81.7705 80.1181 81.0873C80.0538 80.3651 80.5912 79.7293 81.3163 79.6652L89.6752 78.9374C90.4003 78.8761 91.0385 79.4087 91.1029 80.1309C91.1673 80.8531 90.6298 81.4889 89.9048 81.553L81.5458 82.2808C81.5066 82.2836 81.4674 82.2864 81.4283 82.2864Z" fill="#E01115"/>
<path d="M98.7425 80.9089C98.0006 80.9089 97.368 80.3428 97.3008 79.5927C97.2308 78.798 97.8215 78.0981 98.6193 78.0284L106.978 77.3006C107.776 77.2337 108.479 77.8193 108.549 78.614C108.619 79.4087 108.028 80.1086 107.23 80.1783L98.8712 80.9061C98.8293 80.9089 98.7845 80.9117 98.7425 80.9117V80.9089Z" fill="#E01115"/>
<path d="M116.057 79.5286C115.245 79.5286 114.556 78.9096 114.483 78.0897C114.408 77.2225 115.052 76.4585 115.919 76.3832L124.278 75.6554C125.149 75.5801 125.916 76.2215 125.992 77.0859C126.067 77.9531 125.423 78.7171 124.555 78.7924L116.197 79.5202C116.149 79.523 116.104 79.5258 116.057 79.5258V79.5286Z" fill="#E01115"/>
<path d="M28.9567 83.4462C28.5508 83.4462 28.1757 83.1758 28.0665 82.7658C27.9349 82.2751 28.2261 81.7732 28.7188 81.6421L36.823 79.4783C37.3157 79.3472 37.8195 79.6372 37.9511 80.128C38.0827 80.6187 37.7916 81.1207 37.2989 81.2517L29.1947 83.4156C29.1135 83.4379 29.0351 83.4462 28.9567 83.4462Z" fill="#E01115"/>
<path d="M45.7474 79.0961C45.2827 79.0961 44.8572 78.7866 44.7312 78.3181C44.5801 77.7576 44.9132 77.1832 45.4759 77.0326L53.5801 74.8688C54.1428 74.7182 54.7194 75.0501 54.8706 75.6105C55.0218 76.171 54.6886 76.7454 54.126 76.896L46.0218 79.0599C45.9294 79.0849 45.8398 79.0961 45.7474 79.0961Z" fill="#E01115"/>
<path d="M62.5354 74.7463C62.0119 74.7463 61.5332 74.3977 61.3904 73.8707C61.2197 73.2405 61.5976 72.5936 62.2274 72.4235L70.3316 70.2596C70.9643 70.0895 71.6137 70.466 71.7845 71.0934C71.9553 71.7236 71.5774 72.3705 70.9475 72.5406L62.8433 74.7044C62.7397 74.7323 62.6361 74.7463 62.5354 74.7463Z" fill="#E01115"/>
<path d="M79.3231 70.3963C78.7409 70.3963 78.209 70.0087 78.0522 69.4231C77.8647 68.7232 78.2818 68.0038 78.9844 67.817L87.0886 65.6531C87.7913 65.4663 88.5135 65.8818 88.7011 66.5817C88.8886 67.2816 88.4715 68.001 87.7689 68.1878L79.6647 70.3517C79.5499 70.3824 79.4351 70.3963 79.3231 70.3963Z" fill="#E01115"/>
<path d="M96.1138 66.0462C95.4728 66.0462 94.8877 65.6223 94.7142 64.9754C94.507 64.2058 94.9661 63.4139 95.7387 63.2075L103.843 61.0437C104.616 60.8373 105.411 61.2946 105.618 62.0642C105.825 62.8339 105.366 63.6258 104.593 63.8321L96.489 65.996C96.363 66.0294 96.237 66.0462 96.1138 66.0462Z" fill="#E01115"/>
<path d="M112.902 61.699C112.205 61.699 111.566 61.2361 111.376 60.5306C111.149 59.6913 111.65 58.8269 112.493 58.601L120.597 56.4372C121.44 56.2141 122.308 56.7104 122.534 57.5498C122.761 58.3891 122.26 59.2535 121.417 59.4794L113.313 61.6432C113.176 61.6795 113.039 61.6962 112.902 61.6962V61.699Z" fill="#E01115"/>
<path d="M27.9237 80.6105C27.5766 80.6105 27.2435 80.4153 27.0867 80.0807C26.8712 79.6206 27.0699 79.0741 27.5318 78.8594L35.1377 75.3264C35.5996 75.1117 36.1483 75.3097 36.3639 75.7698C36.5794 76.2298 36.3807 76.7764 35.9188 76.9911L28.3129 80.5241C28.1869 80.5826 28.0553 80.6105 27.9237 80.6105Z" fill="#E01115"/>
<path d="M43.6759 73.4244C43.2784 73.4244 42.8977 73.1985 42.7213 72.8193C42.475 72.295 42.7045 71.6704 43.2308 71.425L50.8367 67.8921C51.3658 67.6467 51.9901 67.8753 52.2364 68.3996C52.4827 68.9238 52.2532 69.5484 51.7269 69.7938L44.121 73.3268C43.9782 73.3937 43.8243 73.4244 43.6759 73.4244Z" fill="#E01115"/>
<path d="M59.428 66.2389C58.9801 66.2389 58.5546 65.9851 58.353 65.5557C58.0759 64.9646 58.3335 64.2619 58.9269 63.9858L66.5328 60.4528C67.1263 60.1768 67.8317 60.4333 68.1089 61.0245C68.386 61.6156 68.1285 62.3183 67.535 62.5944L59.9291 66.1273C59.7667 66.2026 59.596 66.2389 59.428 66.2389Z" fill="#E01115"/>
<path d="M75.1801 59.0527C74.6846 59.0527 74.2087 58.7711 73.9848 58.2942C73.6769 57.6362 73.9624 56.8582 74.623 56.5515L82.229 53.0185C82.8896 52.7118 83.6734 52.9962 83.9786 53.6543C84.2865 54.3123 84.001 55.0931 83.3403 55.397L75.7344 58.93C75.5552 59.0137 75.3649 59.0527 75.1773 59.0527H75.1801Z" fill="#E01115"/>
<path d="M90.935 51.8669C90.3891 51.8669 89.8656 51.5574 89.6221 51.0332C89.2833 50.311 89.5969 49.4521 90.3219 49.1147L97.9278 45.5817C98.6529 45.2443 99.5151 45.5567 99.8538 46.2789C100.193 47.0011 99.879 47.8599 99.154 48.1973L91.548 51.7303C91.3493 51.8223 91.1421 51.8669 90.9378 51.8669H90.935Z" fill="#E01115"/>
<path d="M106.687 44.6812C106.091 44.6812 105.523 44.3438 105.254 43.7722C104.884 42.9831 105.226 42.0461 106.018 41.6809L113.624 38.1479C114.416 37.7798 115.357 38.12 115.723 38.9091C116.093 39.6983 115.751 40.6352 114.959 41.0005L107.353 44.5335C107.138 44.6338 106.911 44.6812 106.687 44.6812Z" fill="#E01115"/>
<path d="M55.159 88.7863C55.1282 88.7863 55.0974 88.7863 55.0666 88.7835L46.7076 88.0557C46.1282 88.0055 45.6999 87.4952 45.7502 86.918C45.8006 86.3408 46.3101 85.9114 46.8924 85.9644L55.2513 86.6922C55.8308 86.7424 56.2591 87.2527 56.2087 87.8299C56.1611 88.3764 55.6992 88.7891 55.159 88.7891V88.7863Z" fill="#E01115"/>
<path d="M72.4759 90.4256C72.4423 90.4256 72.4059 90.4256 72.3723 90.42L64.0133 89.6923C63.3611 89.6365 62.8796 89.0621 62.9356 88.4124C62.9916 87.7626 63.571 87.2802 64.2205 87.3388L72.5794 88.0666C73.2317 88.1224 73.7132 88.6968 73.6572 89.3465C73.604 89.9599 73.0861 90.4256 72.4787 90.4256H72.4759Z" fill="#E01115"/>
<path d="M89.7901 92.0681C89.7509 92.0681 89.7117 92.0681 89.6725 92.0625L81.3136 91.3347C80.5885 91.2706 80.0538 90.6348 80.1154 89.9126C80.1798 89.1904 80.8181 88.6578 81.5431 88.7192L89.902 89.447C90.6271 89.5111 91.1618 90.1469 91.1002 90.8691C91.0414 91.5522 90.4647 92.0681 89.7901 92.0681Z" fill="#E01115"/>
<path d="M107.104 93.7077C107.062 93.7077 107.02 93.7077 106.975 93.7021L98.6165 92.9743C97.8186 92.9046 97.2308 92.2047 97.298 91.41C97.3679 90.6153 98.0678 90.0325 98.8684 90.0966L107.227 90.8244C108.025 90.8941 108.613 91.594 108.546 92.3887C108.479 93.1388 107.846 93.7049 107.104 93.7049V93.7077Z" fill="#E01115"/>
<path d="M124.421 95.3475C124.374 95.3475 124.329 95.3475 124.281 95.3419L115.922 94.6142C115.052 94.5389 114.408 93.7748 114.486 92.9076C114.562 92.0404 115.326 91.3991 116.199 91.4771L124.558 92.2049C125.429 92.2802 126.073 93.0443 125.994 93.9115C125.922 94.7313 125.233 95.3475 124.421 95.3475Z" fill="#E01115"/>
<path d="M37.0637 91.5551C36.9853 91.5551 36.9042 91.544 36.8258 91.5244L28.7216 89.3606C28.2289 89.2295 27.9378 88.7248 28.0693 88.2369C28.2009 87.7461 28.7076 87.4561 29.1975 87.5871L37.3017 89.751C37.7944 89.882 38.0855 90.3868 37.9539 90.8747C37.8448 91.2846 37.4696 91.5551 37.0637 91.5551Z" fill="#E01115"/>
<path d="M53.8544 96.1674C53.7648 96.1674 53.6725 96.1562 53.5801 96.1311L45.4759 93.9673C44.9132 93.8167 44.5801 93.2423 44.7312 92.6818C44.8824 92.1213 45.4591 91.7895 46.0218 91.9401L54.126 94.1039C54.6886 94.2545 55.0218 94.8289 54.8706 95.3894C54.7446 95.8579 54.3191 96.1674 53.8544 96.1674Z" fill="#E01115"/>
<path d="M70.6423 100.779C70.5415 100.779 70.438 100.765 70.3344 100.737L62.2302 98.5735C61.5975 98.4034 61.2224 97.7565 61.3932 97.1263C61.5639 96.4961 62.2134 96.1224 62.846 96.2925L70.9502 98.4564C71.5829 98.6265 71.958 99.2734 71.7873 99.9036C71.6445 100.431 71.1658 100.779 70.6423 100.779Z" fill="#E01115"/>
<path d="M87.4301 105.391C87.3182 105.391 87.2034 105.377 87.0886 105.347L78.9844 103.183C78.2818 102.996 77.8647 102.277 78.0522 101.577C78.2398 100.877 78.962 100.461 79.6647 100.648L87.7689 102.812C88.4715 102.999 88.8886 103.718 88.7011 104.418C88.5443 105.004 88.0124 105.391 87.4301 105.391Z" fill="#E01115"/>
<path d="M104.221 110.004C104.098 110.004 103.972 109.987 103.846 109.953L95.7415 107.79C94.9689 107.583 94.5098 106.791 94.717 106.022C94.9241 105.252 95.7191 104.795 96.4918 105.001L104.596 107.165C105.369 107.371 105.828 108.163 105.621 108.933C105.447 109.577 104.862 110.004 104.221 110.004Z" fill="#E01115"/>
<path d="M121.009 114.616C120.874 114.616 120.734 114.599 120.597 114.563L112.493 112.399C111.65 112.173 111.149 111.311 111.376 110.469C111.603 109.63 112.471 109.134 113.313 109.357L121.417 111.52C122.26 111.746 122.761 112.608 122.534 113.45C122.344 114.153 121.706 114.618 121.009 114.618V114.616Z" fill="#E01115"/>
<path d="M35.5269 95.7599C35.3953 95.7599 35.2637 95.732 35.1377 95.6735L27.5318 92.1405C27.0699 91.9258 26.8712 91.3793 27.0867 90.9192C27.3023 90.4591 27.851 90.2611 28.3129 90.4758L35.9188 94.0088C36.3807 94.2235 36.5794 94.77 36.3639 95.2301C36.2071 95.5647 35.874 95.7599 35.5269 95.7599Z" fill="#E01115"/>
<path d="M51.279 103.208C51.1306 103.208 50.9795 103.177 50.8339 103.11L43.228 99.5775C42.7017 99.3321 42.4722 98.7075 42.7185 98.1833C42.9649 97.659 43.5919 97.4304 44.1182 97.6758L51.7241 101.209C52.2504 101.454 52.4799 102.079 52.2336 102.603C52.0544 102.985 51.6737 103.208 51.279 103.208Z" fill="#E01115"/>
<path d="M67.0311 110.656C66.8632 110.656 66.6924 110.62 66.53 110.544L58.9241 107.011C58.3306 106.735 58.0731 106.033 58.3502 105.441C58.6274 104.85 59.3328 104.594 59.9263 104.87L67.5322 108.403C68.1257 108.679 68.3832 109.382 68.1061 109.973C67.9045 110.402 67.4762 110.656 67.0311 110.656Z" fill="#E01115"/>
<path d="M82.7832 118.104C82.5957 118.104 82.4081 118.065 82.2262 117.981L74.6202 114.448C73.9596 114.142 73.6769 113.361 73.982 112.706C74.2899 112.047 75.0737 111.763 75.7316 112.07L83.3375 115.603C83.9982 115.909 84.2809 116.69 83.9758 117.346C83.7518 117.822 83.2759 118.104 82.7804 118.104H82.7832Z" fill="#E01115"/>
<path d="M98.5381 125.552C98.3337 125.552 98.1238 125.507 97.9278 125.415L90.3219 121.882C89.5969 121.545 89.2833 120.686 89.6221 119.964C89.9608 119.242 90.823 118.929 91.548 119.267L99.154 122.8C99.879 123.137 100.193 123.996 99.8538 124.718C99.6075 125.242 99.084 125.552 98.5409 125.552H98.5381Z" fill="#E01115"/>
<path d="M114.29 133C114.066 133 113.84 132.953 113.624 132.852L106.018 129.319C105.226 128.951 104.884 128.014 105.254 127.228C105.623 126.439 106.564 126.099 107.353 126.467L114.959 130C115.751 130.368 116.093 131.305 115.723 132.091C115.455 132.663 114.886 133 114.29 133Z" fill="#E01115"/>
</g>
<defs>
<clipPath id="clip0_1_1700">
<rect width="99" height="95" fill="white" transform="translate(27 38)"/>
</clipPath>
</defs>
</svg>
