<svg width="170" height="170" viewBox="0 0 170 170" fill="none" xmlns="http://www.w3.org/2000/svg">
<g clip-path="url(#clip0_1_1693)">
<path d="M85 4.72626C129.354 4.72626 165.274 40.6459 165.274 85C165.274 129.354 129.354 165.274 85 165.274C40.6459 165.274 4.72626 129.354 4.72626 85C4.72626 40.6459 40.6459 4.72626 85 4.72626ZM85 0C38.1009 0 0 38.1009 0 85C0 131.899 38.1009 170 85 170C131.899 170 170 131.899 170 85C170 38.1009 131.899 0 85 0Z" fill="#E01115"/>
<g clip-path="url(#clip1_1_1693)">
<path d="M101.138 64.532C101.799 62.878 102.297 62.878 102.876 64.532L106.765 74.5384C107.095 75.6966 107.343 76.3576 106.103 76.3576L104.2 76.4403V95.7921C104.2 110.017 111.814 123.083 124.144 130.196L121.91 134C109.083 126.556 100.807 113.159 99.8961 98.439C96.5859 99.0174 93.0276 99.3493 89.3851 99.5146V96.6198C93.0261 96.4545 96.5017 96.0414 99.8134 95.4616V76.4403L97.9102 76.3576C96.7512 76.3576 96.9166 75.6966 97.2488 74.5384L101.138 64.532ZM37 75.0342V37.4887C37 36.661 37.6615 36 38.4071 36H131.593C132.421 36 133 36.661 133 37.4887V75.0342C133 81.9805 127.456 88.2659 118.6 92.6494C115.042 94.4686 110.903 95.9573 106.434 97.0329V94.0555C110.406 92.9799 114.131 91.6579 117.276 90.0866C125.22 86.1176 130.103 80.7411 130.103 74.953C130.103 69.1648 125.22 63.7884 117.276 59.8194C109.083 55.6838 97.6622 53.2036 85 53.2036C72.3378 53.2036 60.9173 55.6852 52.7244 59.8194C44.7795 63.7884 39.8968 69.1648 39.8968 74.953C39.8968 80.7411 44.7795 86.1176 52.7244 90.0866C56.4481 91.9058 60.9173 93.4771 65.8 94.6353V76.4417L63.8968 76.3591C62.6551 76.3591 62.9032 75.6981 63.2354 74.5399L67.1244 64.5334C67.7032 62.8795 68.2007 62.8795 68.8622 64.5334L72.7512 74.5399C73.082 75.6981 73.2473 76.3591 72.0898 76.3591L70.1866 76.4417V95.7935C70.1866 111.507 61.7456 126.145 48.0898 134.001L45.8558 130.198C57.6898 123.417 65.1385 111.094 65.7173 97.6142C60.4212 96.3734 55.5385 94.7194 51.4 92.6523C42.5442 88.2673 37 81.982 37 75.0342ZM82.8488 99.5972C79.2078 99.5146 75.648 99.1841 72.2551 98.7695C72.3378 97.7766 72.3378 96.785 72.3378 95.7921C75.7307 96.2878 79.2063 96.6198 82.8488 96.7024V70.8174H80.9456C79.7039 70.7347 79.8693 70.0737 80.2015 68.9155L84.0905 58.9091C84.7519 57.2551 85.2495 57.3377 85.911 58.9091L89.8 68.9155C90.1307 70.0737 90.2961 70.7347 89.1385 70.8174H87.2354V132.098H82.8488V99.5972Z" fill="#E01115"/>
</g>
</g>
<defs>
<clipPath id="clip0_1_1693">
<rect width="170" height="170" fill="white"/>
</clipPath>
<clipPath id="clip1_1_1693">
<rect width="96" height="98" fill="white" transform="translate(37 36)"/>
</clipPath>
</defs>
</svg>
